<svg xmlns="http://www.w3.org/2000/svg" xmlns:xlink="http://www.w3.org/1999/xlink" width="197" zoomAndPan="magnify" viewBox="0 0 147.75 37.5" height="50" preserveAspectRatio="xMidYMid meet" version="1.0"><defs><g/></defs><g fill="#19489a" fill-opacity="1"><g transform="translate(52.578593, 27.566662)"><g><path d="M 7.375 0.328125 C 3.519531 0.328125 1.234375 -1.664062 0.515625 -5.65625 L 3.53125 -6.15625 C 3.726562 -4.90625 4.164062 -3.929688 4.84375 -3.234375 C 5.519531 -2.535156 6.367188 -2.1875 7.390625 -2.1875 C 8.515625 -2.1875 9.398438 -2.566406 10.046875 -3.328125 C 10.691406 -4.097656 11.015625 -5.226562 11.015625 -6.71875 L 11.015625 -20.234375 L 6.640625 -20.234375 L 6.640625 -22.75 L 14.078125 -22.75 L 14.078125 -6.78125 C 14.078125 -4.570312 13.476562 -2.832031 12.28125 -1.5625 C 11.09375 -0.300781 9.457031 0.328125 7.375 0.328125 Z M 7.375 0.328125 "/></g></g></g><g fill="#19489a" fill-opacity="1"><g transform="translate(69.114929, 27.566662)"><g><path d="M 22.3125 -11.609375 C 22.3125 -9.265625 21.851562 -7.210938 20.9375 -5.453125 C 20.019531 -3.691406 18.71875 -2.34375 17.03125 -1.40625 C 15.351562 -0.46875 13.414062 0 11.21875 0 L 2.71875 0 L 2.71875 -22.75 L 10.234375 -22.75 C 14.085938 -22.75 17.0625 -21.78125 19.15625 -19.84375 C 21.257812 -17.914062 22.3125 -15.171875 22.3125 -11.609375 Z M 19.203125 -11.609375 C 19.203125 -14.429688 18.425781 -16.582031 16.875 -18.0625 C 15.332031 -19.539062 13.097656 -20.28125 10.171875 -20.28125 L 5.796875 -20.28125 L 5.796875 -2.46875 L 10.875 -2.46875 C 12.539062 -2.46875 14.003906 -2.832031 15.265625 -3.5625 C 16.535156 -4.300781 17.507812 -5.359375 18.1875 -6.734375 C 18.863281 -8.109375 19.203125 -9.734375 19.203125 -11.609375 Z M 19.203125 -11.609375 "/></g></g></g><g fill="#2978bb" fill-opacity="1"><g transform="translate(93.011816, 26.047285)"><g><path d="M 4.03125 0.15625 C 3.457031 0.15625 3.003906 -0.00390625 2.671875 -0.328125 C 2.347656 -0.648438 2.1875 -1.070312 2.1875 -1.59375 C 2.1875 -2.113281 2.347656 -2.539062 2.671875 -2.875 C 3.003906 -3.207031 3.457031 -3.375 4.03125 -3.375 C 4.601562 -3.375 5.050781 -3.210938 5.375 -2.890625 C 5.707031 -2.578125 5.875 -2.15625 5.875 -1.625 C 5.875 -1.101562 5.707031 -0.675781 5.375 -0.34375 C 5.039062 -0.0078125 4.59375 0.15625 4.03125 0.15625 Z M 4.03125 0.15625 "/></g></g></g></svg>