<svg xmlns="http://www.w3.org/2000/svg" xmlns:xlink="http://www.w3.org/1999/xlink" width="500" zoomAndPan="magnify" viewBox="0 0 375 374.999991" height="500" preserveAspectRatio="xMidYMid meet" version="1.0"><defs><g/><clipPath id="5f7b8b1fb9"><path d="M 22.269531 91.664062 L 353.019531 91.664062 L 353.019531 283.664062 L 22.269531 283.664062 Z M 22.269531 91.664062 " clip-rule="nonzero"/></clipPath><clipPath id="6056e93973"><path d="M 190.703125 91.664062 L 352.703125 91.664062 L 352.703125 283.664062 L 190.703125 283.664062 Z M 190.703125 91.664062 " clip-rule="nonzero"/></clipPath></defs><g clip-path="url(#5f7b8b1fb9)"><path fill="#1d376a" d="M 353.007812 187.65625 C 353.007812 240.457031 310.09375 283.417969 257.339844 283.417969 L 181.5625 283.417969 C 179.949219 283.417969 178.347656 282.738281 177.214844 281.410156 L 175.363281 279.242188 L 126.164062 221.554688 L 75.125 281.410156 C 73.992188 282.726562 72.386719 283.410156 70.777344 283.410156 C 69.457031 283.410156 68.140625 282.957031 67.070312 282.046875 C 64.675781 280 64.390625 276.382812 66.4375 273.984375 L 121.824219 209.039062 C 123.992188 206.496094 128.347656 206.496094 130.511719 209.039062 L 184.199219 271.984375 L 257.339844 271.984375 C 303.683594 271.984375 341.402344 234.34375 341.585938 188.007812 C 341.769531 141.441406 303.3125 103.335938 256.789062 103.335938 L 184.199219 103.335938 L 32.328125 281.410156 C 31.222656 282.710938 29.621094 283.410156 27.980469 283.410156 C 27.316406 283.410156 26.65625 283.300781 26.007812 283.058594 C 23.769531 282.230469 22.269531 280.089844 22.269531 277.691406 L 22.269531 97.621094 C 22.269531 94.457031 24.820312 91.902344 27.980469 91.902344 C 31.140625 91.902344 33.691406 94.457031 33.691406 97.621094 L 33.691406 262.191406 L 176.183594 95.113281 L 177.214844 93.902344 C 178.339844 92.585938 179.941406 91.902344 181.5625 91.902344 L 257.339844 91.902344 C 310.09375 91.902344 353.007812 134.855469 353.007812 187.65625 Z M 181.316406 91.902344 C 179.058594 91.902344 177.105469 93.210938 176.183594 95.113281 L 177.214844 93.902344 C 178.339844 92.585938 179.941406 91.902344 181.5625 91.902344 Z M 177.214844 281.410156 L 175.363281 279.242188 C 175.628906 280.203125 176.136719 281.058594 176.828125 281.75 C 177.859375 282.78125 179.289062 283.429688 180.863281 283.429688 L 181.5625 283.429688 C 179.941406 283.417969 178.347656 282.738281 177.214844 281.410156 Z M 177.214844 281.410156 " fill-opacity="1" fill-rule="nonzero"/></g><g clip-path="url(#6056e93973)"><path fill="#e15925" d="M 353.007812 187.65625 C 353.007812 240.457031 310.09375 283.417969 257.339844 283.417969 L 181.5625 283.417969 C 179.949219 283.417969 178.347656 282.738281 177.214844 281.410156 L 175.363281 279.242188 L 126.164062 221.554688 L 75.125 281.410156 C 73.992188 282.726562 72.386719 283.410156 70.777344 283.410156 C 69.457031 283.410156 68.140625 282.957031 67.070312 282.046875 C 64.675781 280 64.390625 276.382812 66.4375 273.984375 L 121.824219 209.039062 C 123.992188 206.496094 128.347656 206.496094 130.511719 209.039062 L 184.199219 271.984375 L 257.339844 271.984375 C 303.683594 271.984375 341.402344 234.34375 341.585938 188.007812 C 341.769531 141.441406 303.3125 103.335938 256.789062 103.335938 L 184.199219 103.335938 L 32.328125 281.410156 C 31.222656 282.710938 29.621094 283.410156 27.980469 283.410156 C 27.316406 283.410156 26.65625 283.300781 26.007812 283.058594 C 23.769531 282.230469 22.269531 280.089844 22.269531 277.691406 L 22.269531 97.621094 C 22.269531 94.457031 24.820312 91.902344 27.980469 91.902344 C 31.140625 91.902344 33.691406 94.457031 33.691406 97.621094 L 33.691406 262.191406 L 176.183594 95.113281 L 177.214844 93.902344 C 178.339844 92.585938 179.941406 91.902344 181.5625 91.902344 L 257.339844 91.902344 C 310.09375 91.902344 353.007812 134.855469 353.007812 187.65625 Z M 181.316406 91.902344 C 179.058594 91.902344 177.105469 93.210938 176.183594 95.113281 L 177.214844 93.902344 C 178.339844 92.585938 179.941406 91.902344 181.5625 91.902344 Z M 177.214844 281.410156 L 175.363281 279.242188 C 175.628906 280.203125 176.136719 281.058594 176.828125 281.75 C 177.859375 282.78125 179.289062 283.429688 180.863281 283.429688 L 181.5625 283.429688 C 179.941406 283.417969 178.347656 282.738281 177.214844 281.410156 Z M 177.214844 281.410156 " fill-opacity="1" fill-rule="nonzero"/></g><g fill="#e15925" fill-opacity="1"><g transform="translate(190.706258, 211.960577)"><g><path d="M 48.59375 -23.734375 L 48.59375 -11.109375 L 4.28125 -28.890625 L 4.28125 -40.6875 L 48.59375 -58.46875 L 48.59375 -45.890625 L 20.6875 -35.328125 L 20.6875 -34.296875 Z M 48.59375 -23.734375 "/></g></g></g><g fill="#1d376a" fill-opacity="1"><g transform="translate(298.815249, 160.854217)"><g><path d="M -48.59375 23.734375 L -48.59375 11.109375 L -4.28125 28.890625 L -4.28125 40.6875 L -48.59375 58.46875 L -48.59375 45.890625 L -20.6875 35.328125 L -20.6875 34.296875 Z M -48.59375 23.734375 "/></g></g></g></svg>