<svg xmlns="http://www.w3.org/2000/svg" xmlns:xlink="http://www.w3.org/1999/xlink" width="2000" zoomAndPan="magnify" viewBox="0 0 1500 809.999993" height="1080" preserveAspectRatio="xMidYMid meet" version="1.0"><defs><g/></defs><g fill="#000000" fill-opacity="1"><g transform="translate(55.278372, 773.318665)"><g><path d="M 272.328125 10.390625 C 196.453125 10.390625 138.15625 -6.0625 97.4375 -38.96875 C 56.726562 -71.882812 29.617188 -125.070312 16.109375 -198.53125 L 168.390625 -220.875 C 174.628906 -183.113281 186.234375 -155.132812 203.203125 -136.9375 C 220.179688 -118.75 243.570312 -109.65625 273.375 -109.65625 C 303.863281 -109.65625 326.988281 -119.875 342.75 -140.3125 C 358.519531 -160.757812 366.40625 -190.039062 366.40625 -228.15625 L 366.40625 -612.21875 L 220.359375 -612.21875 L 220.359375 -732.28125 L 519.1875 -732.28125 L 519.1875 -231.796875 C 519.1875 -155.566406 497.53125 -96.144531 454.21875 -53.53125 C 410.914062 -10.914062 350.285156 10.390625 272.328125 10.390625 Z M 272.328125 10.390625 "/></g></g><g transform="translate(647.23106, 773.318665)"><g><path d="M 723.96875 -371.59375 C 723.96875 -296.0625 709.15625 -230.144531 679.53125 -173.84375 C 649.90625 -117.539062 607.976562 -74.488281 553.75 -44.6875 C 499.53125 -14.894531 437.425781 0 367.4375 0 L 71.203125 0 L 71.203125 -732.28125 L 336.25 -732.28125 C 459.601562 -732.28125 555.0625 -701.179688 622.625 -638.984375 C 690.1875 -576.796875 723.96875 -487.664062 723.96875 -371.59375 Z M 569.609375 -371.59375 C 569.609375 -450.25 549.164062 -510.273438 508.28125 -551.671875 C 467.394531 -593.078125 409.015625 -613.78125 333.140625 -613.78125 L 224.515625 -613.78125 L 224.515625 -118.5 L 354.4375 -118.5 C 420.269531 -118.5 472.585938 -141.191406 511.390625 -186.578125 C 550.203125 -231.960938 569.609375 -293.632812 569.609375 -371.59375 Z M 569.609375 -371.59375 "/></g></g></g><g fill="#2978bb" fill-opacity="1"><g transform="translate(1249.557712, 755.034685)"><g><path d="M 137.375 4.390625 C 120.164062 4.390625 104.984375 0.898438 91.828125 -6.078125 C 78.671875 -13.066406 68.601562 -22.734375 61.625 -35.078125 C 54.644531 -47.421875 51.15625 -61.382812 51.15625 -76.96875 C 51.15625 -92.5625 54.644531 -106.523438 61.625 -118.859375 C 68.601562 -131.203125 78.671875 -140.945312 91.828125 -148.09375 C 104.984375 -155.238281 120.164062 -158.8125 137.375 -158.8125 C 154.914062 -158.8125 170.265625 -155.320312 183.421875 -148.34375 C 196.578125 -141.363281 206.644531 -131.703125 213.625 -119.359375 C 220.601562 -107.015625 224.09375 -93.046875 224.09375 -77.453125 C 224.09375 -53.742188 216.21875 -34.175781 200.46875 -18.75 C 184.71875 -3.320312 163.6875 4.390625 137.375 4.390625 Z M 137.375 4.390625 "/></g></g></g></svg>