<svg xmlns="http://www.w3.org/2000/svg" xmlns:xlink="http://www.w3.org/1999/xlink" width="197" zoomAndPan="magnify" viewBox="0 0 147.75 37.5" height="50" preserveAspectRatio="xMidYMid meet" version="1.0"><defs><g/><clipPath id="4facc82ec6"><path d="M 142 25 L 146.65625 25 L 146.65625 29 L 142 29 Z M 142 25 " clip-rule="nonzero"/></clipPath></defs><g fill="#000000" fill-opacity="1"><g transform="translate(0.861123, 28.436201)"><g><path d="M 8.46875 0.328125 C 6.101562 0.328125 4.285156 -0.179688 3.015625 -1.203125 C 1.753906 -2.234375 0.914062 -3.890625 0.5 -6.171875 L 5.234375 -6.859375 C 5.429688 -5.691406 5.789062 -4.820312 6.3125 -4.25 C 6.84375 -3.6875 7.570312 -3.40625 8.5 -3.40625 C 9.445312 -3.40625 10.164062 -3.722656 10.65625 -4.359375 C 11.144531 -4.992188 11.390625 -5.90625 11.390625 -7.09375 L 11.390625 -19.03125 L 6.84375 -19.03125 L 6.84375 -22.75 L 16.140625 -22.75 L 16.140625 -7.203125 C 16.140625 -4.835938 15.460938 -2.988281 14.109375 -1.65625 C 12.765625 -0.332031 10.882812 0.328125 8.46875 0.328125 Z M 8.46875 0.328125 "/></g></g></g><g fill="#000000" fill-opacity="1"><g transform="translate(19.255867, 28.436201)"><g><path d="M 6.59375 -17.46875 L 6.59375 -7.671875 C 6.59375 -4.597656 7.625 -3.0625 9.6875 -3.0625 C 10.789062 -3.0625 11.675781 -3.53125 12.34375 -4.46875 C 13.019531 -5.414062 13.359375 -6.628906 13.359375 -8.109375 L 13.359375 -17.46875 L 17.890625 -17.46875 L 17.890625 -3.90625 C 17.890625 -2.425781 17.9375 -1.125 18.03125 0 L 13.703125 0 C 13.566406 -1.550781 13.5 -2.707031 13.5 -3.46875 L 13.421875 -3.46875 C 12.816406 -2.144531 12.046875 -1.179688 11.109375 -0.578125 C 10.179688 0.0234375 9.078125 0.328125 7.796875 0.328125 C 5.941406 0.328125 4.519531 -0.238281 3.53125 -1.375 C 2.539062 -2.507812 2.046875 -4.175781 2.046875 -6.375 L 2.046875 -17.46875 Z M 6.59375 -17.46875 "/></g></g></g><g fill="#000000" fill-opacity="1"><g transform="translate(39.459399, 28.436201)"><g><path d="M 9.625 7.015625 C 7.488281 7.015625 5.769531 6.609375 4.46875 5.796875 C 3.175781 4.984375 2.378906 3.820312 2.078125 2.3125 L 6.625 1.78125 C 6.78125 2.476562 7.125 3.023438 7.65625 3.421875 C 8.195312 3.816406 8.894531 4.015625 9.75 4.015625 C 11.007812 4.015625 11.929688 3.628906 12.515625 2.859375 C 13.097656 2.085938 13.390625 0.9375 13.390625 -0.59375 L 13.390625 -1.515625 L 13.421875 -3.25 L 13.390625 -3.25 C 12.390625 -1.101562 10.515625 -0.03125 7.765625 -0.03125 C 5.734375 -0.03125 4.15625 -0.796875 3.03125 -2.328125 C 1.914062 -3.859375 1.359375 -6.046875 1.359375 -8.890625 C 1.359375 -11.734375 1.929688 -13.929688 3.078125 -15.484375 C 4.234375 -17.035156 5.910156 -17.8125 8.109375 -17.8125 C 10.648438 -17.8125 12.410156 -16.765625 13.390625 -14.671875 L 13.46875 -14.671875 C 13.46875 -15.046875 13.488281 -15.554688 13.53125 -16.203125 C 13.582031 -16.847656 13.640625 -17.269531 13.703125 -17.46875 L 18 -17.46875 C 17.925781 -16.3125 17.890625 -14.96875 17.890625 -13.4375 L 17.890625 -0.53125 C 17.890625 1.957031 17.1875 3.835938 15.78125 5.109375 C 14.375 6.378906 12.320312 7.015625 9.625 7.015625 Z M 13.421875 -8.984375 C 13.421875 -10.773438 13.097656 -12.175781 12.453125 -13.1875 C 11.816406 -14.195312 10.90625 -14.703125 9.71875 -14.703125 C 7.300781 -14.703125 6.09375 -12.765625 6.09375 -8.890625 C 6.09375 -5.085938 7.289062 -3.1875 9.6875 -3.1875 C 10.894531 -3.1875 11.816406 -3.6875 12.453125 -4.6875 C 13.097656 -5.695312 13.421875 -7.128906 13.421875 -8.984375 Z M 13.421875 -8.984375 "/></g></g></g><g fill="#000000" fill-opacity="1"><g transform="translate(59.662931, 28.436201)"><g><path d="M 6.34375 0.328125 C 4.65625 0.328125 3.335938 -0.128906 2.390625 -1.046875 C 1.441406 -1.972656 0.96875 -3.269531 0.96875 -4.9375 C 0.96875 -6.75 1.554688 -8.128906 2.734375 -9.078125 C 3.910156 -10.023438 5.617188 -10.507812 7.859375 -10.53125 L 11.625 -10.59375 L 11.625 -11.484375 C 11.625 -12.628906 11.425781 -13.476562 11.03125 -14.03125 C 10.632812 -14.582031 9.984375 -14.859375 9.078125 -14.859375 C 8.234375 -14.859375 7.613281 -14.664062 7.21875 -14.28125 C 6.832031 -13.90625 6.59375 -13.273438 6.5 -12.390625 L 1.765625 -12.609375 C 2.054688 -14.316406 2.832031 -15.609375 4.09375 -16.484375 C 5.351562 -17.359375 7.078125 -17.796875 9.265625 -17.796875 C 11.472656 -17.796875 13.175781 -17.25 14.375 -16.15625 C 15.570312 -15.070312 16.171875 -13.53125 16.171875 -11.53125 L 16.171875 -5.171875 C 16.171875 -4.191406 16.28125 -3.515625 16.5 -3.140625 C 16.71875 -2.765625 17.085938 -2.578125 17.609375 -2.578125 C 17.953125 -2.578125 18.285156 -2.613281 18.609375 -2.6875 L 18.609375 -0.21875 C 18.335938 -0.15625 18.09375 -0.0976562 17.875 -0.046875 C 17.664062 0.00390625 17.453125 0.046875 17.234375 0.078125 C 17.015625 0.109375 16.785156 0.132812 16.546875 0.15625 C 16.304688 0.175781 16.023438 0.1875 15.703125 0.1875 C 14.554688 0.1875 13.710938 -0.0859375 13.171875 -0.640625 C 12.628906 -1.203125 12.300781 -2.03125 12.1875 -3.125 L 12.09375 -3.125 C 10.820312 -0.820312 8.90625 0.328125 6.34375 0.328125 Z M 11.625 -8.09375 L 9.296875 -8.0625 C 8.242188 -8.019531 7.492188 -7.898438 7.046875 -7.703125 C 6.609375 -7.515625 6.273438 -7.226562 6.046875 -6.84375 C 5.816406 -6.457031 5.703125 -5.941406 5.703125 -5.296875 C 5.703125 -4.460938 5.890625 -3.84375 6.265625 -3.4375 C 6.648438 -3.039062 7.160156 -2.84375 7.796875 -2.84375 C 8.503906 -2.84375 9.148438 -3.035156 9.734375 -3.421875 C 10.328125 -3.804688 10.789062 -4.34375 11.125 -5.03125 C 11.457031 -5.71875 11.625 -6.441406 11.625 -7.203125 Z M 11.625 -8.09375 "/></g></g></g><g fill="#000000" fill-opacity="1"><g transform="translate(78.057675, 28.436201)"><g><path d="M 13.625 0 C 13.582031 -0.164062 13.53125 -0.570312 13.46875 -1.21875 C 13.414062 -1.875 13.390625 -2.414062 13.390625 -2.84375 L 13.328125 -2.84375 C 12.347656 -0.726562 10.484375 0.328125 7.734375 0.328125 C 5.703125 0.328125 4.128906 -0.460938 3.015625 -2.046875 C 1.910156 -3.640625 1.359375 -5.863281 1.359375 -8.71875 C 1.359375 -11.613281 1.941406 -13.847656 3.109375 -15.421875 C 4.273438 -17.003906 5.929688 -17.796875 8.078125 -17.796875 C 9.316406 -17.796875 10.382812 -17.535156 11.28125 -17.015625 C 12.175781 -16.503906 12.867188 -15.738281 13.359375 -14.71875 L 13.390625 -14.71875 L 13.359375 -17.59375 L 13.359375 -23.96875 L 17.890625 -23.96875 L 17.890625 -3.8125 C 17.890625 -2.738281 17.9375 -1.46875 18.03125 0 Z M 13.421875 -8.828125 C 13.421875 -10.710938 13.101562 -12.164062 12.46875 -13.1875 C 11.84375 -14.207031 10.914062 -14.71875 9.6875 -14.71875 C 8.46875 -14.71875 7.5625 -14.222656 6.96875 -13.234375 C 6.382812 -12.253906 6.09375 -10.75 6.09375 -8.71875 C 6.09375 -4.757812 7.28125 -2.78125 9.65625 -2.78125 C 10.851562 -2.78125 11.78125 -3.300781 12.4375 -4.34375 C 13.09375 -5.394531 13.421875 -6.890625 13.421875 -8.828125 Z M 13.421875 -8.828125 "/></g></g></g><g fill="#000000" fill-opacity="1"><g transform="translate(98.261207, 28.436201)"><g><path d="M 6.59375 -17.46875 L 6.59375 -7.671875 C 6.59375 -4.597656 7.625 -3.0625 9.6875 -3.0625 C 10.789062 -3.0625 11.675781 -3.53125 12.34375 -4.46875 C 13.019531 -5.414062 13.359375 -6.628906 13.359375 -8.109375 L 13.359375 -17.46875 L 17.890625 -17.46875 L 17.890625 -3.90625 C 17.890625 -2.425781 17.9375 -1.125 18.03125 0 L 13.703125 0 C 13.566406 -1.550781 13.5 -2.707031 13.5 -3.46875 L 13.421875 -3.46875 C 12.816406 -2.144531 12.046875 -1.179688 11.109375 -0.578125 C 10.179688 0.0234375 9.078125 0.328125 7.796875 0.328125 C 5.941406 0.328125 4.519531 -0.238281 3.53125 -1.375 C 2.539062 -2.507812 2.046875 -4.175781 2.046875 -6.375 L 2.046875 -17.46875 Z M 6.59375 -17.46875 "/></g></g></g><g fill="#000000" fill-opacity="1"><g transform="translate(118.464739, 28.436201)"><g><path d="M 5.71875 -14.5 L 2.1875 -14.5 L 1.765625 -22.75 L 6.15625 -22.75 Z M 5.71875 -14.5 "/></g></g></g><g fill="#000000" fill-opacity="1"><g transform="translate(126.329747, 28.436201)"><g><path d="M 17.046875 -5.109375 C 17.046875 -3.410156 16.351562 -2.078125 14.96875 -1.109375 C 13.582031 -0.148438 11.664062 0.328125 9.21875 0.328125 C 6.820312 0.328125 4.984375 -0.0507812 3.703125 -0.8125 C 2.429688 -1.570312 1.582031 -2.753906 1.15625 -4.359375 L 5.15625 -4.953125 C 5.375 -4.128906 5.757812 -3.546875 6.3125 -3.203125 C 6.875 -2.859375 7.84375 -2.6875 9.21875 -2.6875 C 10.488281 -2.6875 11.414062 -2.847656 12 -3.171875 C 12.582031 -3.492188 12.875 -4 12.875 -4.6875 C 12.875 -5.25 12.640625 -5.691406 12.171875 -6.015625 C 11.703125 -6.347656 10.90625 -6.625 9.78125 -6.84375 C 7.21875 -7.351562 5.488281 -7.828125 4.59375 -8.265625 C 3.707031 -8.703125 3.03125 -9.265625 2.5625 -9.953125 C 2.09375 -10.648438 1.859375 -11.503906 1.859375 -12.515625 C 1.859375 -14.179688 2.5 -15.476562 3.78125 -16.40625 C 5.070312 -17.34375 6.894531 -17.8125 9.25 -17.8125 C 11.332031 -17.8125 13.003906 -17.40625 14.265625 -16.59375 C 15.535156 -15.789062 16.328125 -14.625 16.640625 -13.09375 L 12.609375 -12.671875 C 12.484375 -13.390625 12.164062 -13.921875 11.65625 -14.265625 C 11.15625 -14.617188 10.351562 -14.796875 9.25 -14.796875 C 8.175781 -14.796875 7.367188 -14.65625 6.828125 -14.375 C 6.296875 -14.101562 6.03125 -13.644531 6.03125 -13 C 6.03125 -12.5 6.234375 -12.097656 6.640625 -11.796875 C 7.054688 -11.503906 7.753906 -11.257812 8.734375 -11.0625 C 10.109375 -10.78125 11.320312 -10.488281 12.375 -10.1875 C 13.4375 -9.894531 14.285156 -9.546875 14.921875 -9.140625 C 15.566406 -8.734375 16.082031 -8.207031 16.46875 -7.5625 C 16.851562 -6.925781 17.046875 -6.109375 17.046875 -5.109375 Z M 17.046875 -5.109375 "/></g></g></g><g clip-path="url(#4facc82ec6)"><g fill="#2978bb" fill-opacity="1"><g transform="translate(140.707542, 28.815123)"><g><path d="M 4.03125 0.15625 C 3.457031 0.15625 3.003906 -0.00390625 2.671875 -0.328125 C 2.347656 -0.648438 2.1875 -1.070312 2.1875 -1.59375 C 2.1875 -2.113281 2.347656 -2.539062 2.671875 -2.875 C 3.003906 -3.207031 3.457031 -3.375 4.03125 -3.375 C 4.601562 -3.375 5.050781 -3.210938 5.375 -2.890625 C 5.707031 -2.578125 5.875 -2.15625 5.875 -1.625 C 5.875 -1.101562 5.707031 -0.675781 5.375 -0.34375 C 5.039062 -0.0078125 4.59375 0.15625 4.03125 0.15625 Z M 4.03125 0.15625 "/></g></g></g></g></svg>